<svg width="98" height="20" viewBox="0 0 98 20" fill="none" xmlns="http://www.w3.org/2000/svg">
<path fill-rule="evenodd" clip-rule="evenodd" d="M19.0909 1.36363C19.0909 0.61052 18.4804 0 17.7273 0V0C16.9742 0 16.3636 0.61052 16.3636 1.36363V18.6364C16.3636 19.3895 16.9742 20 17.7273 20V20C18.4804 20 19.0909 19.3895 19.0909 18.6364V1.36363Z" fill="#91D5FF"/>
<rect width="14.5455" height="20" rx="2" fill="#1890FF"/>
<path d="M91.8326 18.784C90.6326 18.784 89.5686 18.528 88.6406 18.016C87.7126 17.504 86.9846 16.784 86.4566 15.856C85.9286 14.928 85.6646 13.856 85.6646 12.64C85.6646 11.408 85.9206 10.312 86.4326 9.352C86.9606 8.392 87.6806 7.648 88.5926 7.12C89.5206 6.576 90.6086 6.304 91.8566 6.304C93.0246 6.304 94.0566 6.56 94.9526 7.072C95.8486 7.584 96.5446 8.288 97.0406 9.184C97.5526 10.064 97.8086 11.048 97.8086 12.136C97.8086 12.312 97.8006 12.496 97.7846 12.688C97.7846 12.88 97.7766 13.08 97.7606 13.288H88.7126C88.7766 14.216 89.0966 14.944 89.6726 15.472C90.2646 16 90.9766 16.264 91.8086 16.264C92.4326 16.264 92.9526 16.128 93.3686 15.856C93.8006 15.568 94.1206 15.2 94.3286 14.752H97.4486C97.2246 15.504 96.8486 16.192 96.3206 16.816C95.8086 17.424 95.1686 17.904 94.4006 18.256C93.6486 18.608 92.7926 18.784 91.8326 18.784ZM91.8566 8.8C91.1046 8.8 90.4406 9.016 89.8646 9.448C89.2886 9.864 88.9206 10.504 88.7606 11.368H94.6886C94.6406 10.584 94.3526 9.96 93.8246 9.496C93.2966 9.032 92.6406 8.8 91.8566 8.8Z" fill="#141414"/>
<path d="M76.5849 18.496L72.2169 6.592H75.4329L78.4569 15.592L81.4809 6.592H84.6969L80.3049 18.496H76.5849Z" fill="#141414"/>
<path d="M65.2779 18.784C64.0779 18.784 63.0139 18.528 62.0859 18.016C61.1579 17.504 60.4299 16.784 59.9019 15.856C59.3739 14.928 59.1099 13.856 59.1099 12.64C59.1099 11.408 59.3659 10.312 59.8779 9.352C60.4059 8.392 61.1259 7.648 62.0379 7.12C62.9659 6.576 64.0539 6.304 65.3019 6.304C66.4699 6.304 67.5019 6.56 68.3979 7.072C69.2939 7.584 69.9899 8.288 70.4859 9.184C70.9979 10.064 71.2539 11.048 71.2539 12.136C71.2539 12.312 71.2459 12.496 71.2299 12.688C71.2299 12.88 71.2219 13.08 71.2059 13.288H62.1579C62.2219 14.216 62.5419 14.944 63.1179 15.472C63.7099 16 64.4219 16.264 65.2539 16.264C65.8779 16.264 66.3979 16.128 66.8139 15.856C67.2459 15.568 67.5659 15.2 67.7739 14.752H70.8939C70.6699 15.504 70.2939 16.192 69.7659 16.816C69.2539 17.424 68.6139 17.904 67.8459 18.256C67.0939 18.608 66.2379 18.784 65.2779 18.784ZM65.3019 8.8C64.5499 8.8 63.8859 9.016 63.3099 9.448C62.7339 9.864 62.3659 10.504 62.2059 11.368H68.1339C68.0859 10.584 67.7979 9.96 67.2699 9.496C66.7419 9.032 66.0859 8.8 65.3019 8.8Z" fill="#141414"/>
<path d="M50.9342 18.784C49.7342 18.784 48.6702 18.528 47.7422 18.016C46.8142 17.504 46.0862 16.784 45.5582 15.856C45.0302 14.928 44.7662 13.856 44.7662 12.64C44.7662 11.408 45.0222 10.312 45.5342 9.352C46.0622 8.392 46.7822 7.648 47.6942 7.12C48.6222 6.576 49.7102 6.304 50.9582 6.304C52.1262 6.304 53.1582 6.56 54.0542 7.072C54.9502 7.584 55.6462 8.288 56.1422 9.184C56.6542 10.064 56.9102 11.048 56.9102 12.136C56.9102 12.312 56.9022 12.496 56.8862 12.688C56.8862 12.88 56.8782 13.08 56.8622 13.288H47.8142C47.8782 14.216 48.1982 14.944 48.7742 15.472C49.3662 16 50.0782 16.264 50.9102 16.264C51.5342 16.264 52.0542 16.128 52.4702 15.856C52.9022 15.568 53.2222 15.2 53.4302 14.752H56.5502C56.3262 15.504 55.9502 16.192 55.4222 16.816C54.9102 17.424 54.2702 17.904 53.5022 18.256C52.7502 18.608 51.8942 18.784 50.9342 18.784ZM50.9582 8.8C50.2062 8.8 49.5422 9.016 48.9662 9.448C48.3902 9.864 48.0222 10.504 47.8622 11.368H53.7902C53.7422 10.584 53.4542 9.96 52.9262 9.496C52.3982 9.032 51.7422 8.8 50.9582 8.8Z" fill="#141414"/>
<path d="M38.9392 18.496V1.216H42.0112V18.496H38.9392Z" fill="#141414"/>
<path d="M30.4269 18.784C29.1949 18.784 28.1069 18.576 27.1629 18.16C26.2189 17.728 25.4749 17.12 24.9309 16.336C24.3869 15.536 24.1069 14.568 24.0909 13.432H27.3309C27.3629 14.216 27.6429 14.88 28.1709 15.424C28.7149 15.952 29.4589 16.216 30.4029 16.216C31.2189 16.216 31.8669 16.024 32.3469 15.64C32.8269 15.24 33.0669 14.712 33.0669 14.056C33.0669 13.368 32.8509 12.832 32.4189 12.448C32.0029 12.064 31.4429 11.752 30.7389 11.512C30.0349 11.272 29.2829 11.016 28.4829 10.744C27.1869 10.296 26.1949 9.72 25.5069 9.016C24.8349 8.312 24.4989 7.376 24.4989 6.208C24.4829 5.216 24.7149 4.368 25.1949 3.664C25.6909 2.944 26.3629 2.392 27.2109 2.008C28.0589 1.608 29.0349 1.408 30.1389 1.408C31.2589 1.408 32.2429 1.608 33.0909 2.008C33.9549 2.408 34.6269 2.968 35.1069 3.688C35.6029 4.408 35.8669 5.264 35.8989 6.256H32.6109C32.5949 5.664 32.3629 5.144 31.9149 4.696C31.4829 4.232 30.8749 4 30.0909 4C29.4189 3.984 28.8509 4.152 28.3869 4.504C27.9389 4.84 27.7149 5.336 27.7149 5.992C27.7149 6.552 27.8909 7 28.2429 7.336C28.5949 7.656 29.0749 7.928 29.6829 8.152C30.2909 8.376 30.9869 8.616 31.7709 8.872C32.6029 9.16 33.3629 9.496 34.0509 9.88C34.7389 10.264 35.2909 10.776 35.7069 11.416C36.1229 12.04 36.3309 12.848 36.3309 13.84C36.3309 14.72 36.1069 15.536 35.6589 16.288C35.2109 17.04 34.5469 17.648 33.6669 18.112C32.7869 18.56 31.7069 18.784 30.4269 18.784Z" fill="#141414"/>
</svg>
